<?xml version="1.0" encoding="UTF-8"?>
<svg id="Layer_1" xmlns="http://www.w3.org/2000/svg" version="1.1" viewBox="0 0 160 32">
  <!-- Generator: Adobe Illustrator 30.1.0, SVG Export Plug-In . SVG Version: 2.1.1 Build 136)  -->
  <defs>
    <style>
      .st0 {
        fill: #0d1b2a;
      }

      .st1 {
        isolation: isolate;
      }

      .st2 {
        fill: #fff;
      }

      .st3 {
        stroke-width: 1.9px;
      }

      .st3, .st4, .st5 {
        fill: none;
        stroke: #0d1b2a;
        stroke-miterlimit: 2.9;
      }

      .st6 {
        fill: #1d4ed8;
      }

      .st4 {
        stroke-width: 1.3px;
      }

      .st4, .st5 {
        stroke-linecap: round;
      }

      .st5 {
        stroke-width: 1px;
      }
    </style>
  </defs>
  <g>
    <g class="st1">
      <path class="st0" d="M10.7,23.9v-7h-6.1v7H1.3v-15.7h3.2v6h6.1v-6h3.3v15.7h-3.3Z"/>
    </g>
    <g>
      <circle class="st3" cx="28.9" cy="16" r="10.2"/>
      <line class="st4" x1="25.3" y1="10.2" x2="25.3" y2="21.1"/>
      <line class="st5" x1="23.8" y1="10.2" x2="23.8" y2="13.8"/>
      <line class="st5" x1="25.3" y1="10.2" x2="25.3" y2="13.8"/>
      <line class="st5" x1="26.7" y1="10.2" x2="26.7" y2="13.8"/>
      <line class="st5" x1="23.8" y1="13.8" x2="26.7" y2="13.8"/>
      <line class="st4" x1="32.5" y1="10.2" x2="32.5" y2="21.1"/>
      <path class="st5" d="M32.5,10.2c1.9,1.5,1.9,3.2,0,5.1"/>
    </g>
    <g class="st1">
      <path class="st0" d="M50.4,17.6h-3.4v6.2h-3.2v-15.7h7.7c1.1,0,1.9.2,2.5.4.6.2,1.1.6,1.5,1.1.3.4.6.8.8,1.3s.3,1,.3,1.7-.2,1.5-.6,2.2c-.4.7-1,1.2-1.9,1.5.7.3,1.2.7,1.5,1.2s.5,1.4.5,2.5v1.1c0,.7,0,1.2,0,1.5,0,.4.3.7.6.9v.4h-3.6c0-.3-.2-.6-.2-.8,0-.4-.1-.9-.1-1.4v-1.5c0-1-.2-1.7-.6-2-.4-.3-1-.5-2-.5ZM52.4,14.8c.7-.3,1-.9,1-1.8s-.3-1.6-.9-1.9c-.4-.2-.9-.3-1.6-.3h-3.8v4.2h3.7c.7,0,1.3,0,1.7-.3Z"/>
      <path class="st0" d="M70.1,16.9h-7.6v4h8.7v2.8h-11.9v-15.7h11.5v2.8h-8.3v3.3h7.6v2.7Z"/>
      <path class="st0" d="M84.5,22.6c-1.2,1.1-2.7,1.6-4.5,1.6s-4-.7-5.3-2.2c-1.3-1.5-1.9-3.5-1.9-6s.7-4.9,2.2-6.3c1.3-1.3,2.9-1.9,4.9-1.9s4.6.9,5.8,2.6c.7,1,1,1.9,1.1,2.9h-3.3c-.2-.8-.5-1.3-.8-1.7-.6-.7-1.5-1-2.7-1s-2.1.5-2.8,1.4-1,2.3-1,4.1.4,3.1,1.1,4,1.7,1.3,2.8,1.3,2-.4,2.6-1.1c.3-.4.6-1,.8-1.8h3.2c-.3,1.7-1,3.1-2.2,4.2Z"/>
      <path class="st0" d="M98,20.6h-5.8l-1.1,3.2h-3.4l5.6-15.7h3.7l5.6,15.7h-3.6l-1-3.2ZM97.1,17.8l-2-6.2-2,6.2h4Z"/>
    </g>
  </g>
  <g>
    <rect class="st6" x="106.3" y="2.2" width="52.4" height="27.6" rx="5.8" ry="5.8"/>
    <g class="st1">
      <path class="st2" d="M122.2,22.1v-5.6h-4.9v5.6h-2.6v-12.6h2.6v4.8h4.9v-4.8h2.6v12.6h-2.6Z"/>
      <path class="st2" d="M134.7,17.3v-7.7h2.7v7.7c0,1.3-.2,2.4-.6,3.1-.8,1.4-2.2,2-4.4,2s-3.7-.7-4.4-2c-.4-.7-.6-1.8-.6-3.1v-7.7h2.7v7.7c0,.9.1,1.5.3,1.9.3.7,1,1.1,2.1,1.1s1.8-.4,2.1-1.1c.2-.4.3-1,.3-1.9Z"/>
      <path class="st2" d="M145.7,22.1h-5.7v-12.6h6.1c1.5,0,2.6.5,3.3,1.3.4.5.6,1.2.6,1.9s-.2,1.4-.6,1.8c-.2.3-.5.5-1,.7.6.2,1.1.6,1.5,1.1.3.5.5,1.1.5,1.8s-.2,1.4-.6,2c-.2.4-.5.7-.9,1-.4.3-.9.5-1.4.6-.5.1-1.1.2-1.8.2ZM146.9,14.2c.3-.2.5-.6.5-1.1s-.2-1-.7-1.2c-.4-.1-.9-.2-1.5-.2h-2.8v2.8h3.1c.6,0,1-.1,1.3-.3ZM145.6,16.6h-3.1v3.3h3.1c.6,0,1,0,1.3-.2.6-.3.8-.8.8-1.6s-.3-1.1-.8-1.3c-.3-.1-.7-.2-1.3-.2Z"/>
    </g>
  </g>
</svg>