<?xml version="1.0" encoding="UTF-8"?>
<svg id="Layer_1" xmlns="http://www.w3.org/2000/svg" version="1.1" viewBox="0 0 160 32">
  <!-- Generator: Adobe Illustrator 30.1.0, SVG Export Plug-In . SVG Version: 2.1.1 Build 136)  -->
  <defs>
    <style>
      .st0 {
        fill: #fff;
      }

      .st1 {
        fill: #1d4ed8;
      }
    </style>
  </defs>
  <g>
    <path class="st0" d="M29.1,6.8c-5.1,0-9.2,4.1-9.2,9.2s4.1,9.2,9.2,9.2,9.2-4.1,9.2-9.2-4.1-9.2-9.2-9.2ZM27.4,13.8c0,.3-.2.5-.5.5h-.7v6.8c0,.4-.3.6-.6.6s-.6-.3-.6-.6v-6.8h-.8c-.3,0-.5-.2-.5-.5v-3.6c0-.3.2-.5.5-.5s.5.2.5.5v3.1h.3v-3.1c0-.4.3-.6.6-.6s.6.3.6.6v3.1h.2v-3.1c0-.3.2-.5.5-.5s.5.2.5.5v3.6ZM33.3,15.3v5.8c0,.4-.3.6-.6.6s-.6-.3-.6-.6v-10.9c0-.4.3-.6.6-.6s.6.2.6.5c.8.7,1.2,1.5,1.3,2.3,0,.9-.4,1.9-1.3,2.9Z"/>
    <path class="st0" d="M52.6,11.1c-.4-.2-.9-.3-1.6-.3h-3.8v4.2h3.7c.7,0,1.3,0,1.7-.3h0c.7-.2,1-.8,1-1.7s-.3-1.6-.9-1.9Z"/>
    <path class="st0" d="M33.3,11.7v2c.2-.4.3-.8.3-1.1,0-.3-.1-.6-.3-.8Z"/>
    <polygon class="st0" points="93.1 17.8 97 17.8 95.1 11.6 93.1 17.8"/>
    <polygon class="st0" points="10.8 14.2 4.7 14.2 4.7 8.2 1.6 8.2 1.6 23.9 4.8 23.9 4.8 16.9 10.9 16.9 10.9 23.9 14.1 23.9 14.1 8.2 10.8 8.2 10.8 14.2"/>
    <path class="st0" d="M29.1,4.9c-6.1,0-11.1,5-11.1,11.1s5,11.1,11.1,11.1,11.1-5,11.1-11.1-5-11.1-11.1-11.1ZM29.1,25.2c-5.1,0-9.2-4.1-9.2-9.2s4.1-9.2,9.2-9.2,9.2,4.1,9.2,9.2-4.1,9.2-9.2,9.2Z"/>
    <path class="st0" d="M26.9,9.7c-.3,0-.5.2-.5.5v3.1h-.2v-3.1c0-.4-.3-.6-.6-.6s-.6.3-.6.6v3.1h-.3v-3.1c0-.3-.2-.5-.5-.5s-.5.2-.5.5v3.6c0,.3.2.5.5.5h.8v6.8c0,.4.3.6.6.6s.6-.3.6-.6v-6.8h.7c.3,0,.5-.2.5-.5v-3.6c0-.3-.2-.5-.5-.5Z"/>
    <path class="st0" d="M32.7,9.6c-.4,0-.6.3-.6.6v10.9c0,.4.3.6.6.6s.6-.3.6-.6v-5.8c.9-1,1.3-1.9,1.3-2.9,0-.8-.5-1.6-1.3-2.3,0-.3-.3-.5-.6-.5ZM33.3,11.7c.2.3.3.6.3.8,0,.4,0,.7-.3,1.1v-2Z"/>
    <path class="st0" d="M56.2,22.6v-2.6c0-1.1-.2-2-.5-2.5s-.8-.9-1.5-1.2c.9-.3,1.5-.8,1.9-1.5.4-.7.6-1.5.6-2.2s0-1.2-.3-1.7-.5-.9-.8-1.3c-.4-.5-.9-.9-1.5-1.1s-1.4-.4-2.5-.4h-7.7v15.6h3.2v-6.2h3.4-.2c1,0,1.6.3,2,.6.4.3.6,1,.6,2v1.5c0,.5,0,1,0,1.4s.2.5.2.8h3.6v-.4c-.3-.2-.6-.5-.6-.9ZM52.5,14.8h0c-.4.2-1,.2-1.7.2h-3.7v-4.2h3.8c.7,0,1.2,0,1.6.3.6.3.9,1,.9,1.9s-.3,1.5-1,1.8Z"/>
    <polygon class="st0" points="62.6 16.9 70.1 16.9 70.1 16.8 70.1 14.1 62.6 14.1 62.6 10.8 70.8 10.8 70.8 8 59.4 8 59.4 23.7 71.2 23.7 71.2 20.9 62.6 20.9 62.6 16.9"/>
    <path class="st0" d="M80,10.6c1.2,0,2.1.3,2.7,1,.3.4.6.9.8,1.7h3.3c0-1-.4-1.9-1.1-2.9-1.2-1.7-3.8-2.6-5.8-2.6s-3.6.6-4.9,1.9c-1.5,1.4-2.2,3.8-2.2,6.3s.6,4.5,1.9,6c1.3,1.5,3.5,2.2,5.3,2.2s3.3-.5,4.5-1.6h0c1.2-1,1.9-2.4,2.2-4.1h-3.2c-.2.8-.5,1.4-.8,1.8-.6.7-1.5,1.1-2.6,1.1s-2.1-.4-2.8-1.3c-.7-.9-1.1-2.2-1.1-4s.3-3.2,1-4.1c.7-.9,1.6-1.4,2.8-1.4Z"/>
    <path class="st0" d="M93.3,8.1l-5.6,15.6h3.4l1.1-3.2h5.8l1,3.2h3.6l-5.6-15.6h-3.7ZM93.1,17.8l2-6.2,2,6.2h-4Z"/>
  </g>
  <path class="st1" d="M147,17.1c-.3-.1-.7-.2-1.3-.2h-3.2v3.4h3.2c.6,0,1,0,1.3-.2.6-.3.8-.8.8-1.7s-.3-1.1-.8-1.3Z"/>
  <path class="st1" d="M146.9,14.4h.1c.3-.2.5-.6.5-1.1s-.2-1-.7-1.2c-.4-.1-.9-.2-1.6-.2h-2.9v2.9h3.2c.6,0,1-.1,1.3-.3Z"/>
  <path class="st1" d="M152.7,2.2h-40.7c-3.2,0-5.8,2.6-5.8,5.8v15.9c0,3.2,2.6,5.8,5.8,5.8h40.7c3.2,0,5.8-2.6,5.8-5.8v-15.9c0-3.2-2.6-5.8-5.8-5.8ZM124.7,22.1h-2.6v-5.6h-4.9v5.6h-2.6v-12.6h2.6v4.8h4.9v-4.8h2.6v12.6ZM137.2,17.3c0,1.3-.2,2.4-.6,3.1-.8,1.4-2.2,2-4.4,2s-3.7-.7-4.4-2c-.4-.7-.6-1.8-.6-3.1v-7.7h2.7v7.7c0,.9,0,1.5.3,1.9.3.7,1,1.1,2.1,1.1s1.8-.4,2.1-1.1c.2-.4.3-1,.3-1.9v-7.7h2.5v7.7ZM150,20.5c-.2.4-.5.7-.9,1-.4.3-.9.5-1.5.6-.5.1-1.1.2-1.9.2h-5.9v-12.9h6.3c1.6,0,2.7.5,3.4,1.3.4.5.6,1.2.6,2s-.2,1.5-.6,1.9c-.2.3-.5.5-1,.7.6.2,1.1.6,1.6,1.1.3.5.5,1.1.5,1.9s-.2,1.5-.6,2.1Z"/>
  <polygon class="st0" points="122.1 14.3 117.2 14.3 117.2 9.5 114.6 9.5 114.6 22.1 117.2 22.1 117.2 16.5 122.1 16.5 122.1 22.1 124.7 22.1 124.7 9.5 122.1 9.5 122.1 14.3"/>
  <path class="st0" d="M134.7,17.3c0,.9,0,1.5-.3,1.9-.3.7-1,1.1-2.1,1.1s-1.8-.4-2.1-1.1c-.2-.4-.3-1-.3-1.9v-7.7h-2.7v7.7c0,1.3.2,2.4.6,3.1.7,1.3,2.2,2,4.4,2s3.6-.6,4.4-2c.4-.7.6-1.8.6-3.1v-7.7h-2.5v7.7Z"/>
  <path class="st0" d="M148.5,15.4c.5-.2.8-.4,1-.7.4-.4.6-1.1.6-1.9s-.2-1.5-.6-2c-.7-.8-1.9-1.3-3.4-1.3h-6.3v12.9h5.9c.7,0,1.3-.1,1.9-.2.5-.1,1-.3,1.5-.6.4-.3.7-.6.9-1,.4-.6.6-1.3.6-2.1s-.2-1.3-.5-1.9c-.4-.5-.9-.9-1.6-1.1ZM142.3,11.8h2.9c.6,0,1.1.1,1.6.2.5.2.7.7.7,1.2s-.2.9-.5,1.1h-.1c-.3.2-.7.3-1.3.3h-3.2v-2.9ZM147,20.1c-.3.2-.7.2-1.3.2h-3.2v-3.4h3.2c.6,0,1,.1,1.3.2.5.2.8.5.8,1.3s-.2,1.3-.8,1.7Z"/>
</svg>